<svg width="28" height="28" viewBox="0 0 28 28" fill="none" xmlns="http://www.w3.org/2000/svg">
<g clip-path="url(#clip0_2710_1165)">
<path d="M-6 13.9999L34 14" stroke="#646876"/>
<path d="M14 -3.99998L14 36" stroke="#646876"/>
<path d="M29.5 0.000182417C29.5 2.527 27.8599 4.89026 25.0487 6.64725C22.2446 8.39984 18.3396 9.50018 14 9.50018C9.66044 9.50018 5.75544 8.39984 2.95129 6.64725C0.1401 4.89026 -1.5 2.527 -1.5 0.000183095C-1.5 -2.52664 0.1401 -4.88989 2.95129 -6.64689C5.75544 -8.39948 9.66044 -9.49982 14 -9.49982C18.3396 -9.49982 22.2446 -8.39948 25.0487 -6.64689C27.8599 -4.88989 29.5 -2.52664 29.5 0.000182417Z" stroke="#646876"/>
<path d="M29.5 31.9998C29.5 34.5267 27.8599 36.8899 25.0487 38.6469C22.2446 40.3995 18.3396 41.4998 14 41.4998C9.66044 41.4998 5.75544 40.3995 2.95129 38.6469C0.1401 36.8899 -1.5 34.5267 -1.5 31.9998C-1.5 29.473 0.1401 27.1098 2.95129 25.3528C5.75544 23.6002 9.66044 22.4998 14 22.4998C18.3396 22.4998 22.2446 23.6002 25.0487 25.3528C27.8599 27.1098 29.5 29.473 29.5 31.9998Z" stroke="#646876"/>
<path d="M14 27.5C11.7425 27.5 9.62958 26.0759 8.05663 23.6291C6.48712 21.1877 5.5 17.7846 5.5 14C5.5 10.2154 6.48712 6.81235 8.05663 4.37088C9.62958 1.92407 11.7425 0.5 14 0.5C16.2575 0.5 18.3704 1.92407 19.9434 4.37088C21.5129 6.81235 22.5 10.2154 22.5 14C22.5 17.7846 21.5129 21.1877 19.9434 23.6291C18.3704 26.0759 16.2575 27.5 14 27.5Z" stroke="#646876"/>
<path d="M14.306 15.98C12.0847 15.1587 10.316 14.2347 9 13.208C7.712 14.2253 5.934 15.182 3.666 16.078L2.742 14.328C4.87 13.5907 6.508 12.8067 7.656 11.976C7.02133 11.2947 6.48 10.5247 6.032 9.666C5.584 8.80733 5.19667 7.82733 4.87 6.726H2.854V5.074H8.272L7.768 3.352L9.686 3.016C9.78867 3.28667 9.99867 3.97267 10.316 5.074H15.174V6.726H13.06C12.7613 7.818 12.3927 8.79333 11.954 9.652C11.5153 10.5013 10.9787 11.2713 10.344 11.962C11.5853 12.83 13.242 13.5673 15.314 14.174L14.306 15.98ZM6.774 6.726C7.00733 7.566 7.30133 8.322 7.656 8.994C8.02 9.65667 8.46333 10.2587 8.986 10.8C9.48067 10.2587 9.90067 9.65667 10.246 8.994C10.5913 8.33133 10.876 7.57533 11.1 6.726H6.774Z" fill="white"/>
<path d="M24.8613 24.182H22.6213L21.6693 21.438H17.7773L16.8253 24.182H14.5853L18.6453 13.094H20.8153L24.8613 24.182ZM19.6813 15.908L18.4633 19.45H20.9833L19.7653 15.908H19.6813Z" fill="white"/>
</g>
<rect x="0.5" y="0.5" width="27" height="27" rx="13.5" stroke="#646876"/>
<defs>
<clipPath id="clip0_2710_1165">
<rect width="28" height="28" rx="14" fill="white"/>
</clipPath>
</defs>
</svg>
